<?xml version="1.0" encoding="UTF-8" standalone="no"?>
<!-- Created with Inkscape (http://www.inkscape.org/) -->

<svg
   width="500"
   height="500"
   viewBox="0 0 132.29166 132.29166"
   version="1.1"
   id="svg1"
   sodipodi:docname="drawing.svg"
   inkscape:version="1.3.2 (091e20e, 2023-11-25, custom)"
   inkscape:export-filename="OneDrive\Desktop\belajar htmlcss\logo.svg"
   inkscape:export-xdpi="96"
   inkscape:export-ydpi="96"
   xmlns:inkscape="http://www.inkscape.org/namespaces/inkscape"
   xmlns:sodipodi="http://sodipodi.sourceforge.net/DTD/sodipodi-0.dtd"
   xmlns="http://www.w3.org/2000/svg"
   xmlns:svg="http://www.w3.org/2000/svg">
  <sodipodi:namedview
     id="namedview1"
     pagecolor="#ffffff"
     bordercolor="#000000"
     borderopacity="0.25"
     inkscape:showpageshadow="2"
     inkscape:pageopacity="0.0"
     inkscape:pagecheckerboard="0"
     inkscape:deskcolor="#d1d1d1"
     inkscape:document-units="mm"
     showguides="true"
     inkscape:zoom="0.64126689"
     inkscape:cx="402.32859"
     inkscape:cy="309.54351"
     inkscape:window-width="1366"
     inkscape:window-height="705"
     inkscape:window-x="-8"
     inkscape:window-y="-8"
     inkscape:window-maximized="1"
     inkscape:current-layer="layer1" />
  <defs
     id="defs1" />
  <g
     inkscape:label="Layer 1"
     inkscape:groupmode="layer"
     id="layer1">
    <path
       id="path55"
       style="opacity:0.958084;fill:#05285b;fill-opacity:0.637224;stroke:#f4f4f4;stroke-width:0"
       d="M 27.879853,5.787155 V 8.3652919 22.920802 37.476314 52.031825 h 14.45303 14.555509 V 37.476314 22.920802 8.3652919 5.787155 H 42.332883 Z M 71.443905,7.1903056 V 8.3652919 22.920802 37.476314 52.031825 66.586687 81.1422 v 14.555512 14.554868 1.17563 c 1.359526,-0.33365 2.685041,-0.72749 3.978064,-1.17563 3.835117,-1.32919 7.371344,-3.15219 10.5768,-5.41989 3.56495,-2.52201 6.722799,-5.586275 9.421797,-9.134978 1.957869,-2.574248 3.673174,-5.402036 5.133714,-8.452422 0.93221,-1.946906 1.76548,-3.980172 2.48339,-6.10309 1.51809,-4.489038 2.50966,-9.377196 3.00611,-14.555513 0.22727,-2.370647 0.3835,-4.782553 0.3835,-7.277426 0,-2.494881 -0.15623,-4.90677 -0.3835,-7.277436 -0.49643,-5.178128 -1.48812,-10.066576 -3.00611,-14.555511 -0.7179,-2.12294 -1.55118,-4.156133 -2.48339,-6.103092 -1.460515,-3.050389 -3.175845,-5.878177 -5.133714,-8.45242 -2.698986,-3.54868 -5.856859,-6.61364 -9.421797,-9.135624 C 82.793225,11.517444 79.256563,9.6944494 75.42132,8.3652919 74.128559,7.9172649 72.803144,7.5238912 71.443905,7.1903056 Z M 27.879853,66.586687 v 14.555513 14.555512 14.554868 2.57878 h 14.45303 14.555509 V 110.25258 95.697712 81.1422 66.586687 H 42.332883 Z m 64.080219,52.399333 c -1.879692,0 -2.724454,0.94001 -2.724454,2.0277 0,2.73505 4.551063,1.48905 4.551063,3.51658 0,0.72864 -0.60181,1.30904 -1.985172,1.30904 -0.97152,0 -1.911559,-0.37974 -2.439557,-0.89719 l -0.30615,0.60135 c 0.549114,0.57025 1.636903,0.96101 2.745707,0.96101 1.890244,0 2.756035,-0.92906 2.756035,-2.01675 0,-2.69281 -4.551064,-1.46778 -4.551064,-3.49531 0,-0.7392 0.601898,-1.34128 1.953592,-1.34128 0.654719,0 1.393452,0.20047 2.027055,0.61232 l 0.264254,-0.62263 c -0.591358,-0.41184 -1.457074,-0.65484 -2.291309,-0.65484 z m 17.339248,0 c -2.25985,0 -3.90717,1.59475 -3.90717,3.75957 0,2.1648 1.64757,3.75892 3.89686,3.75892 1.02433,0 2.01652,-0.31669 2.71349,-0.93974 v -2.81918 h -0.7496 v 2.49176 c -0.57024,0.41185 -1.22479,0.57041 -1.93231,0.57041 -1.81632,0 -3.15758,-1.30921 -3.15758,-3.06217 0,-1.76354 1.34101,-3.06284 3.16789,-3.06284 0.86593,0 1.60511,0.25378 2.22815,0.86626 l 0.48598,-0.4963 c -0.65472,-0.70751 -1.62635,-1.06669 -2.74571,-1.06669 z m -100.6949013,0.0631 v 7.39216 h 0.781176 v -3.41087 h 4.6251763 v 3.41087 h 0.770863 v -7.39216 h -0.770863 v 3.29485 H 9.3855947 v -3.29485 z m 14.0817793,0 -3.379292,7.39216 h 0.812758 l 0.887523,-1.97485 h 4.117928 l 0.887523,1.97485 h 0.82307 l -3.378648,-7.39216 z m 8.674783,0 v 7.39216 h 0.781176 v -3.1363 h 3.822731 v -0.67547 h -3.822731 v -2.90427 h 4.287439 v -0.67612 z m 9.984476,0 v 7.39216 h 0.78182 v -7.39216 z m 5.834322,0 v 0.67612 h 4.826267 l -4.899744,6.17785 v 0.53819 h 6.061196 v -0.67548 h -5.015761 l 4.888791,-6.17785 v -0.53883 z m 20.196471,0 v 7.39216 h 3.009326 c 2.365458,0 3.960017,-1.52039 3.960017,-3.69575 0,-2.17538 -1.594559,-3.69641 -3.960017,-3.69641 z m 12.022499,0 v 7.39216 h 5.22716 v -0.67548 h -4.445995 v -2.7457 h 3.822732 v -0.66516 h -3.822732 v -2.6297 h 4.287444 v -0.67612 z m 20.15908,0 v 7.39216 h 0.781181 v -7.39216 z m 17.952211,0 v 7.39216 h 0.78118 v -5.99804 l 4.75214,5.99804 h 0.64389 v -7.39216 h -0.77086 v 5.99803 l -4.76246,-5.99803 z m -49.352613,0.67612 h 2.186254 c 1.964168,0 3.231049,1.2462 3.231049,3.02029 0,1.77408 -1.266881,3.02027 -3.231049,3.02027 h -2.186254 z m -45.091598,0.13728 1.774402,3.97033 h -3.54816 z" />
  </g>
</svg>
